<svg width="60" height="48" viewBox="0 0 60 48" fill="none" xmlns="http://www.w3.org/2000/svg">
<path d="M25.9578 47.5986L20.2809 45.9514C19.6853 45.7839 19.3503 45.1603 19.5178 44.5647L32.221 0.806194C32.3885 0.210587 33.012 -0.124442 33.6076 0.0430723L39.2845 1.6903C39.8801 1.85781 40.2151 2.48134 40.0476 3.07695L27.3444 46.8355C27.1676 47.4311 26.5534 47.7754 25.9578 47.5986ZM15.3485 37.1569L19.3968 32.8387C19.8249 32.3827 19.797 31.6568 19.3223 31.238L10.8908 23.8208L19.3223 16.4037C19.797 15.9849 19.8342 15.259 19.3968 14.803L15.3485 10.4848C14.9297 10.0381 14.2225 10.0102 13.7664 10.4383L0.355969 23.0019C-0.118656 23.4393 -0.118656 24.1931 0.355969 24.6305L13.7664 37.2034C14.2225 37.6315 14.9297 37.6129 15.3485 37.1569ZM45.799 37.2127L59.2094 24.6398C59.6841 24.2024 59.6841 23.4486 59.2094 23.0112L45.799 10.429C45.3523 10.0102 44.645 10.0288 44.2169 10.4755L40.1686 14.7937C39.7405 15.2497 39.7684 15.9756 40.2431 16.3944L48.6746 23.8208L40.2431 31.238C39.7684 31.6568 39.7312 32.3827 40.1686 32.8387L44.2169 37.1569C44.6357 37.6129 45.3429 37.6315 45.799 37.2127Z" fill="black"/>
</svg>
