<svg width="60" height="60" viewBox="0 0 60 60" fill="none" xmlns="http://www.w3.org/2000/svg">
<path d="M41.7857 17.1429H18.2143C17.6226 17.1429 17.1429 17.6226 17.1429 18.2143V41.7857C17.1429 42.3775 17.6226 42.8572 18.2143 42.8572H41.7857C42.3775 42.8572 42.8572 42.3775 42.8572 41.7857V18.2143C42.8572 17.6226 42.3775 17.1429 41.7857 17.1429Z" fill="black"/>
<path d="M57.8571 21.4286C58.4255 21.4286 58.9705 21.2028 59.3724 20.8009C59.7742 20.3991 60 19.854 60 19.2857C60 18.7174 59.7742 18.1723 59.3724 17.7705C58.9705 17.3686 58.4255 17.1429 57.8571 17.1429H55.7143V12.8571C55.7118 10.5846 54.8079 8.40589 53.201 6.79897C51.5941 5.19205 49.4154 4.2882 47.1429 4.28571H42.8571V2.14286C42.8571 1.57454 42.6314 1.02949 42.2295 0.627628C41.8277 0.225765 41.2826 0 40.7143 0C40.146 0 39.6009 0.225765 39.1991 0.627628C38.7972 1.02949 38.5714 1.57454 38.5714 2.14286V4.28571H32.1429V2.14286C32.1429 1.57454 31.9171 1.02949 31.5152 0.627628C31.1134 0.225765 30.5683 0 30 0C29.4317 0 28.8866 0.225765 28.4848 0.627628C28.0829 1.02949 27.8571 1.57454 27.8571 2.14286V4.28571H21.4286V2.14286C21.4286 1.57454 21.2028 1.02949 20.8009 0.627628C20.3991 0.225765 19.854 0 19.2857 0C18.7174 0 18.1723 0.225765 17.7705 0.627628C17.3686 1.02949 17.1429 1.57454 17.1429 2.14286V4.28571H12.8571C10.5846 4.2882 8.40589 5.19205 6.79897 6.79897C5.19205 8.40589 4.2882 10.5846 4.28571 12.8571V17.1429H2.14286C1.57454 17.1429 1.02949 17.3686 0.627628 17.7705C0.225765 18.1723 0 18.7174 0 19.2857C0 19.854 0.225765 20.3991 0.627628 20.8009C1.02949 21.2028 1.57454 21.4286 2.14286 21.4286H4.28571V27.8571H2.14286C1.57454 27.8571 1.02949 28.0829 0.627628 28.4848C0.225765 28.8866 0 29.4317 0 30C0 30.5683 0.225765 31.1134 0.627628 31.5152C1.02949 31.9171 1.57454 32.1429 2.14286 32.1429H4.28571V38.5714H2.14286C1.57454 38.5714 1.02949 38.7972 0.627628 39.1991C0.225765 39.6009 0 40.146 0 40.7143C0 41.2826 0.225765 41.8277 0.627628 42.2295C1.02949 42.6314 1.57454 42.8571 2.14286 42.8571H4.28571V47.1429C4.2882 49.4154 5.19205 51.5941 6.79897 53.201C8.40589 54.8079 10.5846 55.7118 12.8571 55.7143H17.1429V57.8571C17.1429 58.4255 17.3686 58.9705 17.7705 59.3724C18.1723 59.7742 18.7174 60 19.2857 60C19.854 60 20.3991 59.7742 20.8009 59.3724C21.2028 58.9705 21.4286 58.4255 21.4286 57.8571V55.7143H27.8571V57.8571C27.8571 58.4255 28.0829 58.9705 28.4848 59.3724C28.8866 59.7742 29.4317 60 30 60C30.5683 60 31.1134 59.7742 31.5152 59.3724C31.9171 58.9705 32.1429 58.4255 32.1429 57.8571V55.7143H38.5714V57.8571C38.5714 58.4255 38.7972 58.9705 39.1991 59.3724C39.6009 59.7742 40.146 60 40.7143 60C41.2826 60 41.8277 59.7742 42.2295 59.3724C42.6314 58.9705 42.8571 58.4255 42.8571 57.8571V55.7143H47.1429C49.4154 55.7118 51.5941 54.8079 53.201 53.201C54.8079 51.5941 55.7118 49.4154 55.7143 47.1429V42.8571H57.8571C58.4255 42.8571 58.9705 42.6314 59.3724 42.2295C59.7742 41.8277 60 41.2826 60 40.7143C60 40.146 59.7742 39.6009 59.3724 39.1991C58.9705 38.7972 58.4255 38.5714 57.8571 38.5714H55.7143V32.1429H57.8571C58.4255 32.1429 58.9705 31.9171 59.3724 31.5152C59.7742 31.1134 60 30.5683 60 30C60 29.4317 59.7742 28.8866 59.3724 28.4848C58.9705 28.0829 58.4255 27.8571 57.8571 27.8571H55.7143V21.4286H57.8571ZM47.1429 42.8571C47.1429 43.9938 46.6913 45.0839 45.8876 45.8876C45.0839 46.6913 43.9938 47.1429 42.8571 47.1429H17.1429C16.0062 47.1429 14.9161 46.6913 14.1124 45.8876C13.3087 45.0839 12.8571 43.9938 12.8571 42.8571V17.1429C12.8571 16.0062 13.3087 14.9161 14.1124 14.1124C14.9161 13.3087 16.0062 12.8571 17.1429 12.8571H42.8571C43.9938 12.8571 45.0839 13.3087 45.8876 14.1124C46.6913 14.9161 47.1429 16.0062 47.1429 17.1429V42.8571Z" fill="black"/>
</svg>
