<svg width="21" height="20" viewBox="0 0 21 20" fill="none" xmlns="http://www.w3.org/2000/svg">
<path d="M7.7748 3.78645C6.80774 3.82406 5.93446 4.16906 5.4673 4.63634C5.25035 4.85334 4.89857 4.85334 4.68163 4.6364C4.46463 4.41951 4.46457 4.06773 4.68152 3.85073C5.4023 3.12984 6.5753 2.72117 7.73158 2.67617C8.89541 2.6309 10.166 2.94956 11.0559 3.83956C11.2727 4.05651 11.2727 4.40829 11.0557 4.62523C10.8388 4.84218 10.487 4.84212 10.2701 4.62518C9.66397 4.0189 8.73424 3.74912 7.7748 3.78645Z" fill="#333333"/>
<path fill-rule="evenodd" clip-rule="evenodd" d="M13.4346 11.8801C14.4968 10.6226 15.1371 8.99717 15.1371 7.22223C15.1371 3.2335 11.9036 0 7.91485 0C3.92613 0 0.692627 3.2335 0.692627 7.22223C0.692627 11.211 3.92613 14.4445 7.91485 14.4445C9.6898 14.4445 11.3152 13.8042 12.5727 12.742L12.3593 13.969L16.5336 18.1433L18.8359 15.841L14.6616 11.6667L13.4346 11.8801ZM7.91485 12.7778C10.9831 12.7778 13.4704 10.2905 13.4704 7.22223C13.4704 4.154 10.9831 1.66667 7.91485 1.66667C4.84663 1.66667 2.35929 4.154 2.35929 7.22223C2.35929 10.2905 4.84663 12.7778 7.91485 12.7778Z" fill="#333333"/>
<path d="M17.3192 18.929L19.6216 16.6266L20.3747 17.3799C20.7986 17.8037 20.7986 18.4909 20.3747 18.9147L19.6073 19.6822C19.1835 20.106 18.4963 20.106 18.0725 19.6822L17.3192 18.929Z" fill="#333333"/>
</svg>
