<svg width="223" height="38" viewBox="0 0 223 38" fill="none" xmlns="http://www.w3.org/2000/svg">
<g filter="url(#filter0_d_23_298)">
<path fill-rule="evenodd" clip-rule="evenodd" d="M4 16.0913L6.67195 14.3975C6.67195 14.3975 13.1054 14.0127 19.6093 14.1359C24.6014 14.228 29.4179 14.5207 32.301 15.4291C35.535 16.4762 37.7851 19.3404 41.6526 22.8666C45.1329 26.0695 48.0509 27.5786 49.4218 27.9021C51.2499 28.364 52.7968 28.4872 54.9063 28.1792L51.9881 29.9963C51.9881 29.9963 51.9081 29.9995 51.7632 30.0001H51.6777C50.8986 29.9974 48.7813 29.9163 46.8204 29.1801C44.6053 28.3333 41.1251 25.7462 38.6638 23.1745C36.2031 20.6186 34.2343 18.4012 31.211 17.2156C27.7654 15.8758 20.418 15.8758 17.2892 15.8298C14.301 15.7834 4 16.0913 4 16.0913Z" fill="white"/>
<path fill-rule="evenodd" clip-rule="evenodd" d="M9.16831 12.8576C9.16831 12.8576 15.6022 12.5188 22.0356 12.6572C26.9221 12.7651 31.8792 13.1963 33.8128 14.0123C37.3281 15.5061 39.5432 18.016 41.7226 20.0947C45.414 23.6056 47.3828 25.1303 49.4222 25.9615C51.2854 26.7006 52.5861 26.7622 53.9569 26.8086C55.3631 26.8702 57.508 26.593 57.508 26.593L60.0744 24.9915C60.0744 24.9915 55.2931 25.8539 52.0941 25.0067C48.8596 24.16 46.0471 21.3266 44.3245 19.9099C43.6564 19.3866 39.3674 15.3214 38.5588 14.7668C37.2931 13.7968 36.3442 12.996 32.9691 12.1647C30.719 11.5948 26.6408 11.2561 22.9144 11.1329C17.184 10.9634 11.8051 11.2561 11.8051 11.2561L9.16831 12.8576Z" fill="white"/>
<path fill-rule="evenodd" clip-rule="evenodd" d="M13.7384 10.0397C13.7384 10.0397 18.5199 9.74698 24.1449 9.91652C28.7853 10.055 34.1291 10.5169 36.5198 11.718C42.18 14.5358 44.6759 17.6619 45.6252 18.5703C46.7853 19.6635 50.0548 22.9744 53.9219 23.7288C55.715 24.0831 57.1212 24.1295 58.7032 24.0523C61.1641 23.9291 62.2185 23.6828 62.2185 23.6828L64.6797 22.1429C64.6797 22.1429 62.9922 22.5585 60.9883 22.7124C59.2658 22.8512 58.0001 23.0052 55.785 22.6508C53.5706 22.3124 51.883 21.3422 49.2461 19.3098C44.6058 15.7525 42.5665 13.3195 41.2658 12.4572C40.0001 11.5796 38.4181 10.4708 35.1837 9.65488C31.8086 8.79224 20.0667 8.5154 15.918 8.69988L13.7384 10.0397Z" fill="white"/>
<path fill-rule="evenodd" clip-rule="evenodd" d="M17.3243 7.82236C17.3243 7.82236 31.8436 7.46801 37.0118 8.93107C41.3709 10.163 44.6053 12.9036 46.8904 14.9979C48.7887 16.7228 50.9336 19.1403 54.59 20.5875C57.5782 21.7733 60.9178 21.6194 62.9921 21.4498C64.2929 21.3575 65.4529 21.265 66.578 20.9723L68.9686 19.4788C68.9686 19.4788 66.8241 19.9871 63.5897 20.2335C61.5153 20.4027 58.1406 20.6339 55.2226 19.2016C51.1443 17.1693 46.3279 11.6873 44.0778 10.2246C41.7226 8.69994 40.035 7.99159 36.1329 7.23722C30.0509 6.06691 19.1175 6.71366 19.1175 6.71366L17.3243 7.82236Z" fill="white"/>
<path fill-rule="evenodd" clip-rule="evenodd" d="M40.4219 4.25019C40.4219 4.25019 44.9921 4.61971 47.4178 6.28281C49.8436 7.93034 52.9725 11.9648 54.4489 13.1043C55.9257 14.2591 58.3864 16.6768 62.7459 16.9385C65.7697 17.0924 68.8985 16.8 70.445 16.5841C72.4138 16.3225 74.4528 16.0608 74.4528 16.0608L76.3864 14.9058C76.3864 14.9058 71.3943 15.8605 65.2417 16.0145C59.617 16.1529 57.9295 13.9819 56.0312 12.4728C54.1326 10.9637 51.7067 7.16038 49.0348 5.25097C46.7852 3.60345 44.359 3.48025 42.5664 3.32621C40.8083 3.17225 40.4219 4.25019 40.4219 4.25019Z" fill="white"/>
<path fill-rule="evenodd" clip-rule="evenodd" d="M44.0427 2.26357C44.0427 2.26357 47.4178 2.44837 49.246 3.46464C51.0738 4.46541 52.6561 6.48285 53.4644 7.39118C54.2731 8.31509 56.1718 10.7634 57.6832 12.1184C59.2302 13.5507 60.8472 15.0287 66.2967 15.0598C70.3745 15.0906 77.5815 14.074 77.5815 14.074L79.3746 12.9656C79.3746 12.9656 71.605 14.2588 66.6484 14.1666C62.4997 14.1048 60.4257 12.9192 58.2808 10.5018C56.1364 8.08403 53.9568 5.11215 53.078 4.28068C52.1992 3.46463 50.898 1.9864 47.699 1.43201C47.5234 1.40125 47.3477 1.37041 47.1716 1.35515C44.9921 1.17035 44.0427 2.26357 44.0427 2.26357Z" fill="white"/>
<path fill-rule="evenodd" clip-rule="evenodd" d="M39.3319 3.60308C37.6794 4.69653 33.5311 5.45099 30.2966 5.34304C27.2733 5.23535 26.0782 4.38854 27.4491 3.41828C28.8553 2.43277 32.5467 1.6168 35.8512 1.60121C39.4021 1.58604 41.0545 2.49437 39.3319 3.60308ZM32.7229 5.77452C27.6958 5.57414 20.2775 5.97458 20.2775 5.97458L27.6603 1.46287C29.3478 1.27808 30.9648 1.13962 34.5511 1.01642C39.9296 0.831622 47.0316 1.33968 47.0316 1.33968L40.851 5.43037C43.0723 5.96844 44.6479 6.56498 46.0467 7.36045C47.9889 8.47196 50.0454 10.6361 51.5 12.1667C52.0202 12.7142 52.4635 13.1806 52.7969 13.4888C52.9212 13.6004 53.0553 13.7241 53.1994 13.857C54.7252 15.2645 57.3776 17.7112 61.5859 17.9084C65.5862 18.095 67.9351 17.7593 69.8306 17.4884L69.832 17.4882C69.9683 17.4687 70.1023 17.4496 70.2344 17.431C72.0975 17.1846 73.0464 16.969 73.0464 16.969L70.8319 18.3549C70.8319 18.3549 70.5155 18.4472 68.0193 18.6936L67.9972 18.6959C65.0208 19.0027 62.9482 19.2163 59.5471 18.8628C55.5033 18.4583 52.6223 15.6318 50.8847 13.9272C50.5073 13.557 50.1839 13.2397 49.9142 13.0116C49.5929 12.7461 49.2245 12.4069 48.8076 12.0229C47.2172 10.5582 44.9198 8.44242 41.8283 7.28326C41.0436 6.99073 40.1021 6.7444 39.17 6.54301L39.1213 6.57523C39.1213 6.57523 36.3087 5.89772 32.7229 5.77452ZM29.3828 1.44761V1.70951L30.2616 1.75552L29.2777 1.97116L29.0315 2.26382L28.4335 2.12512L27.4491 2.24832L28.0116 1.97116L27.6602 1.75552L28.6091 1.70951L29.3828 1.44761ZM25.1995 4.65019V4.38854L24.4963 4.63493L23.6176 4.65019L23.9338 4.86583L23.3712 5.12773L24.2851 5.03529L24.8477 5.18933L25.0939 4.89659L26.0077 4.72737L25.1995 4.65019ZM44.1484 1.3552L44.1835 1.66319L45.3084 1.70954L44.0427 1.94035L43.7264 2.29436L42.9178 2.14041L41.6521 2.27911L42.3552 1.95593L41.8983 1.7248L43.1285 1.66319L44.1484 1.3552ZM39.0506 4.95819L39.0156 4.65019L38.0663 4.92735L36.9413 4.94293L37.3631 5.18933L36.6955 5.497L37.8556 5.37413L38.5938 5.55885L38.91 5.23534L40.0702 5.03504L39.0506 4.95819Z" fill="white"/>
<path fill-rule="evenodd" clip-rule="evenodd" d="M30.2972 4.83523L30.6135 4.9736C30.6135 4.9736 30.6135 5.0968 30.649 5.11239C30.7541 5.14314 30.7541 5.18924 31.0003 5.11239C31.2114 5.05079 31.3516 4.9736 31.4222 4.94284C31.5277 4.91233 31.4572 4.92759 31.7034 4.88124C31.9492 4.83523 32.0903 4.81964 32.266 4.74279C32.4416 4.65043 32.3716 4.74279 32.5473 4.61959C32.7229 4.48089 32.8284 4.40403 33.0392 4.38877C33.2504 4.34243 33.6723 4.29642 33.883 4.28083C34.1291 4.28083 34.6567 4.34243 34.8323 4.28083C34.973 4.20373 35.2191 4.03443 35.3948 4.00367C35.6056 3.94207 35.9924 3.83413 36.2031 3.74177C36.3792 3.64933 36.625 3.52613 36.7657 3.49538C36.8712 3.44928 37.2581 3.34134 37.2581 3.34134C37.2581 3.34134 38.0668 3.09526 38.2775 3.09526C38.5236 3.09526 38.6293 2.98732 38.6643 2.94131C38.6994 2.89496 38.5236 2.84862 38.3831 2.83336C38.2775 2.81778 38.1368 2.80252 38.1018 2.75618C38.0312 2.71016 37.6449 2.64856 37.6449 2.64856C37.6449 2.64856 37.3636 2.75618 37.1174 2.63331C36.8712 2.50986 36.9066 2.43301 36.7305 2.41775C36.59 2.41775 36.6605 2.41775 36.4493 2.41775C36.2387 2.41775 36.133 2.41775 35.9924 2.44826C35.8518 2.46377 35.9924 2.61781 35.6056 2.52537C35.1837 2.41775 35.2191 2.30981 35.1135 2.24821C35.043 2.20211 35.043 2.24821 34.8323 2.21737C34.6567 2.18661 34.6211 2.17135 34.516 2.21737C34.4454 2.24821 34.0591 2.40217 34.0236 2.38667C33.918 2.35582 33.5667 2.23263 33.7073 2.18661C33.883 2.12501 34.0236 1.98631 33.9535 2.00181C33.918 2.00181 33.6723 2.04791 33.5667 2.06341C33.426 2.07867 33.2149 2.06341 33.1799 2.07867C33.1447 2.09425 32.7934 2.12501 32.7579 2.17135C32.7229 2.20211 32.9691 2.20211 32.7229 2.29422C32.5118 2.37141 32.301 2.46377 32.1253 2.37141C31.9142 2.29422 31.9142 2.26371 31.7735 2.27897C31.6684 2.29422 31.4222 2.38667 31.2816 2.43301C31.1409 2.47935 31.0703 2.50986 31.0703 2.50986C31.0703 2.50986 31.0703 2.47935 30.9653 2.58697C30.8947 2.71016 30.7892 2.77176 30.649 2.80252C30.5083 2.83336 30.4729 2.84862 30.1565 2.89496C29.8398 2.94131 29.7346 3.00258 29.559 3.04892C29.4183 3.09526 29.3478 3.14136 29.3828 3.21822C29.4533 3.27974 29.4183 3.34134 29.5235 3.31058C29.6291 3.26448 29.6641 3.21822 29.7346 3.23372C29.8398 3.2493 29.8398 3.40326 29.9459 3.37218C30.0859 3.32608 30.0509 3.35692 30.2972 3.2493C30.5785 3.15662 30.4729 3.17212 30.684 3.20296C30.8947 3.23372 30.8597 3.27974 30.9298 3.35692C31.0353 3.41852 31.1409 3.46454 31.2461 3.48012C31.3516 3.48012 31.2461 3.54172 31.4572 3.66492L31.6684 3.78812C31.6684 3.78812 31.5979 3.88048 31.5277 3.92682C31.4572 3.98809 31.2114 4.08078 31.2816 4.14238C31.3166 4.20373 31.4923 4.25007 31.5629 4.31167C31.6329 4.37319 31.6329 4.51165 31.6329 4.51165C31.6329 4.51165 31.2114 4.66569 31.1409 4.68119C31.0703 4.69645 30.3672 4.80439 30.2972 4.83523Z" fill="white"/>
<path fill-rule="evenodd" clip-rule="evenodd" d="M95.3353 23.0977H98.0073L95.8277 19.2175L93.4722 23.0977M95.3353 15.0598H99.0617L106.831 28.2253H100.925L99.5191 25.7615H91.7495L90.2026 28.2253H84.2262L92.9802 15.0598H95.3353Z" fill="white"/>
<path fill-rule="evenodd" clip-rule="evenodd" d="M115.621 14.8746C115.726 14.8746 115.867 14.8746 116.007 14.8746H115.621ZM115.234 14.8746C115.34 14.8746 115.48 14.8746 115.621 14.8746H115.234ZM115.621 25.2842C118.539 25.2842 120.718 23.8059 120.718 21.6654C120.718 19.4943 118.539 18.0315 115.621 18.0315C112.633 18.0315 110.488 19.4943 110.488 21.6654C110.488 23.8059 112.633 25.2842 115.621 25.2842ZM116.007 28.4561C115.867 28.4561 115.761 28.4561 115.621 28.4561H116.007ZM123.355 16.7228C125.429 18.0161 126.484 19.6947 126.484 21.6654C126.484 23.6056 125.429 25.2842 123.355 26.5622C121.422 27.7786 118.96 28.4101 116.007 28.4561H115.621C112.492 28.4561 109.926 27.8249 107.922 26.5622C105.847 25.2842 104.793 23.5904 104.793 21.6654C104.793 19.6947 105.847 18.0161 107.922 16.7228C109.855 15.5217 112.281 14.921 115.234 14.8746H116.007C118.96 14.921 121.422 15.5217 123.355 16.7228Z" fill="white"/>
<path fill-rule="evenodd" clip-rule="evenodd" d="M138.929 15.0598H139.21H138.929ZM138.929 20.3106C140.265 20.2795 141.425 20.2027 141.425 19.1248C141.425 18.1548 140.405 17.97 139.21 17.9393H137.241V20.3106H138.929ZM147.155 19.094C147.155 22.2198 143.64 23.0977 139.702 23.2672L139.315 23.2824H138.929C138.858 23.2824 138.788 23.2824 138.718 23.2824H137.241V28.2253H131.652V15.0598H139.702C143.605 15.1675 147.155 15.9374 147.155 19.094Z" fill="white"/>
<path fill-rule="evenodd" clip-rule="evenodd" d="M153.8 23.0977H156.472L154.328 19.2175L151.937 23.0977M153.8 15.0598H157.527L165.331 28.2253H159.39L158.019 25.7615H150.214L148.668 28.2253H142.691L151.445 15.0598H153.8Z" fill="white"/>
<path fill-rule="evenodd" clip-rule="evenodd" d="M207.589 14.8746C207.695 14.8746 207.835 14.8746 207.976 14.8746H207.589ZM207.976 25.2842C210.929 25.2842 213.074 23.8059 213.074 21.6654C213.074 19.5095 210.929 18.0315 207.976 18.0315C204.987 18.0315 202.843 19.4943 202.843 21.6654C202.843 23.8059 204.987 25.2842 207.976 25.2842ZM207.589 28.4561H207.976C207.835 28.4561 207.695 28.4561 207.589 28.4561ZM208.363 28.4561C208.222 28.4561 208.117 28.4561 207.976 28.4561H208.363ZM215.675 16.7228C217.749 18.0161 218.839 19.6947 218.839 21.6654C218.839 23.6056 217.749 25.2842 215.675 26.5622C213.777 27.7786 211.316 28.4101 208.363 28.4561H207.589C204.636 28.4101 202.211 27.7786 200.241 26.5622C198.203 25.2842 197.113 23.5904 197.113 21.6654C197.113 19.6947 198.203 18.0161 200.241 16.7228C202.211 15.5217 204.636 14.921 207.589 14.8746H207.976C211.105 14.8746 213.671 15.4754 215.675 16.7228Z" fill="white"/>
<path fill-rule="evenodd" clip-rule="evenodd" d="M77.0896 25.4843C78.9528 25.4843 79.5504 25.1147 79.5504 24.6222C79.5504 23.8831 78.074 23.6675 77.2653 23.4824C72.4138 22.3585 69.777 21.2497 69.777 18.7554C69.777 16.4456 72.9058 14.8746 77.4414 14.8746C79.9022 14.8746 82.1518 15.2909 84.3668 15.9989V19.1558C82.3629 18.4935 80.0073 17.7388 77.6872 17.7388C75.7889 17.7388 75.2614 18.1087 75.2614 18.5088C75.2614 18.8323 75.7889 19.248 77.5816 19.6638C79.2341 20.095 80.9216 20.449 82.4331 21.0495C84.2612 21.8041 85.1756 22.9592 85.1756 24.4219C85.1756 26.9318 82.1518 28.4561 77.1597 28.4561C74.5583 28.4561 72.3432 27.9941 70.0933 27.1013V23.6983C72.2027 24.5451 74.4878 25.4843 77.0896 25.4843Z" fill="white"/>
<path fill-rule="evenodd" clip-rule="evenodd" d="M173.206 28.4561C167.3 28.4561 163.75 26.2851 163.75 22.5586V15.0598H169.339V22.4201C169.339 24.3448 170.746 25.2996 173.242 25.2996C175.738 25.2996 177.109 24.3448 177.109 22.4201V15.0598H182.734V22.5586C182.734 26.2851 179.113 28.4561 173.206 28.4561Z" fill="white"/>
<path fill-rule="evenodd" clip-rule="evenodd" d="M189.623 15.0598V25.2843H197.921V28.2253H184.034V15.0598H189.623Z" fill="white"/>
<path fill-rule="evenodd" clip-rule="evenodd" d="M218.417 2.60229H211.702V4.23456H218.417V6.65204H211.702V8.65394H218.417V11.1485H206.921V0.169312H218.417V2.60229Z" fill="white"/>
<path fill-rule="evenodd" clip-rule="evenodd" d="M197.639 8.49981C199.889 8.22265 201.225 7.1908 201.225 5.63563C201.225 4.08054 199.854 3.07945 197.639 2.80229C197.464 2.78704 197.253 2.77145 197.077 2.77145H194.44V8.51507H197.077C197.253 8.51507 197.464 8.51506 197.639 8.49981ZM202.842 1.32434C205.022 2.37112 206.077 3.84943 206.077 5.63566C206.077 7.57592 204.706 9.22345 202.174 10.2861C200.874 10.8097 199.643 10.9944 198.202 11.0865L197.71 11.1176H197.464C197.007 11.1329 196.55 11.1485 196.093 11.1485H189.729V0.169312H196.093C196.55 0.169312 197.007 0.184813 197.464 0.200071H197.745L198.202 0.215328C199.96 0.338853 201.366 0.569641 202.842 1.32434Z" fill="white"/>
<path fill-rule="evenodd" clip-rule="evenodd" d="M175.175 8.59232C177.6 8.59232 179.323 7.40642 179.323 5.66654C179.323 3.89582 177.6 2.72551 175.21 2.72551C172.749 2.72551 171.061 3.89582 171.061 5.66654C171.061 7.39116 172.784 8.59232 175.175 8.59232ZM181.643 1.55521C183.331 2.63316 184.21 4.01903 184.21 5.66656C184.21 7.29882 183.331 8.65393 181.643 9.70104C180.061 10.7482 177.952 11.2561 175.561 11.3022H175.21C172.714 11.2561 170.639 10.8866 168.776 9.70104C167.089 8.65393 166.21 7.25248 166.21 5.66656C166.21 4.01903 167.089 2.63316 168.776 1.55521C170.393 0.585203 172.397 0.0921611 174.823 0.0461409L175.175 0.0308838H175.561C177.952 0.0921571 180.061 0.569701 181.643 1.55521Z" fill="white"/>
<path fill-rule="evenodd" clip-rule="evenodd" d="M139.632 4.45008C140.651 4.43458 141.425 4.31138 141.425 3.46457C141.425 2.7102 140.581 2.55624 139.667 2.5099H138.085V4.45008H139.597M146.276 3.44907C146.276 4.60413 145.538 5.38934 143.921 5.99C144.519 6.25165 144.976 6.65201 145.328 7.17556L148.175 11.1485H142.831L140.687 7.94552C140.406 7.49882 140.16 7.25242 139.597 7.03687C139.14 6.89841 138.823 6.85231 138.155 6.85231H138.085V11.1485H133.339V0.169312H140.124C143.288 0.277254 146.276 0.831538 146.276 3.44907Z" fill="white"/>
<path fill-rule="evenodd" clip-rule="evenodd" d="M94.7732 0.0308838C94.9138 0.0308838 95.019 0.0308838 95.125 0.0308838H94.7732ZM94.984 8.59235C97.5857 8.51549 99.3435 7.46838 99.3435 5.66657C99.3435 3.84975 97.6209 2.80263 94.984 2.72554C92.6988 2.7563 91.0113 3.92661 91.0113 5.66657C91.0113 7.37594 92.6988 8.56151 94.984 8.59235ZM101.558 1.55524C103.246 2.63319 104.195 4.01906 104.195 5.66659C104.195 7.29885 103.246 8.66947 101.558 9.70107C99.8358 10.8253 97.8315 11.2101 95.5465 11.287L95.125 11.3025H94.7732C92.3825 11.2565 90.3787 10.7482 88.7617 9.70107C87.0386 8.65396 86.1598 7.25276 86.1598 5.66659C86.1598 4.01906 87.0386 2.63319 88.7617 1.55524C90.3787 0.569732 92.3825 0.0769322 94.7732 0.0461715L95.125 0.0308838L95.5465 0.0309144C97.9726 0.092514 99.976 0.569731 101.558 1.55524Z" fill="white"/>
<path fill-rule="evenodd" clip-rule="evenodd" d="M72.2732 9.74735C70.6207 8.7155 69.6713 7.29903 69.6713 5.66676C69.6713 2.30986 73.3628 0 79.1285 0C81.3785 0 83.2768 0.385181 85.2806 1.00109V3.83419C83.4175 3.23377 81.4135 2.67946 79.2691 2.67946C76.2459 2.67946 74.5583 3.80335 74.5583 5.66676C74.5583 7.46832 76.2108 8.59254 78.9528 8.59254C79.6204 8.59254 80.2886 8.53094 80.8861 8.36139V7.48383H78.7417V5.02001H85.2806V9.99367C83.3118 10.9177 81.2029 11.3024 78.7066 11.3024C76.0351 11.3024 73.8202 10.7329 72.2732 9.74735Z" fill="white"/>
<path fill-rule="evenodd" clip-rule="evenodd" d="M107.253 0.169312L110.909 5.88208L114.847 0.169312H120.015L111.929 11.2101H109.714L102.12 0.169312H107.253Z" fill="white"/>
<path fill-rule="evenodd" clip-rule="evenodd" d="M131.968 2.60229H125.253V4.23456H131.968V6.65204H125.253V8.65394H131.968V11.1485H120.472V0.169312H131.968V2.60229Z" fill="white"/>
<path fill-rule="evenodd" clip-rule="evenodd" d="M148.562 11.1485V0.169312H152.605L160.55 5.97452V0.169312H165.225V11.1485H161.569L153.272 4.98925V11.1485H148.562Z" fill="white"/>
<path fill-rule="evenodd" clip-rule="evenodd" d="M95.8277 14.2588L95.054 14.0432C94.7027 13.92 94.3159 13.8587 94.0696 13.8432C93.3315 13.7816 92.9096 13.9971 92.5583 14.4591L90.9408 14.3206C91.6794 12.8116 92.8394 12.134 94.4916 12.2572C94.8083 12.288 95.2653 12.3804 95.7572 12.5189L96.144 12.6268L97.1284 12.8884C97.4097 12.95 97.6559 13.0116 97.9372 13.0272C98.6048 13.0888 99.1674 12.8268 99.4485 12.3341L101.066 12.4573C100.327 13.9508 99.2729 14.7363 97.4447 14.5979C97.0934 14.5668 96.7066 14.4747 96.3552 14.3975L95.8277 14.2588Z" fill="white"/>
</g>
<defs>
<filter id="filter0_d_23_298" x="0" y="0" width="222.839" height="38" filterUnits="userSpaceOnUse" color-interpolation-filters="sRGB">
<feFlood flood-opacity="0" result="BackgroundImageFix"/>
<feColorMatrix in="SourceAlpha" type="matrix" values="0 0 0 0 0 0 0 0 0 0 0 0 0 0 0 0 0 0 127 0" result="hardAlpha"/>
<feOffset dy="4"/>
<feGaussianBlur stdDeviation="2"/>
<feComposite in2="hardAlpha" operator="out"/>
<feColorMatrix type="matrix" values="0 0 0 0 0 0 0 0 0 0 0 0 0 0 0 0 0 0 0.25 0"/>
<feBlend mode="normal" in2="BackgroundImageFix" result="effect1_dropShadow_23_298"/>
<feBlend mode="normal" in="SourceGraphic" in2="effect1_dropShadow_23_298" result="shape"/>
</filter>
</defs>
</svg>
