<svg width="227" height="38" viewBox="0 0 227 38" fill="none" xmlns="http://www.w3.org/2000/svg">
<g filter="url(#filter0_d_23_281)">
<path d="M19.78 0V9.93638H19.3015C18.9415 7.34332 18.2709 5.35604 17.2891 3.97455C16.3074 2.59347 15.1947 1.90273 13.9516 1.90273C12.9128 1.90273 11.9594 2.4174 11.0926 3.44593C10.2253 4.47486 9.59122 5.82105 9.19064 7.4841C8.67515 9.61256 8.4174 11.9803 8.4174 14.5877C8.4174 17.1529 8.60538 19.489 8.98174 21.5961C9.3581 23.7033 9.94706 25.2961 10.749 26.3743C11.5506 27.4525 12.5894 27.9914 13.8658 27.9914C14.9128 27.9914 15.8719 27.597 16.7433 26.8073C17.6146 26.0181 18.5327 24.6583 19.4981 22.7273V25.2005C18.5656 26.8779 17.5941 28.0936 16.5836 28.8475C15.5732 29.6015 14.3932 29.9787 13.0437 29.9787C11.2682 29.9787 9.69136 29.3655 8.31356 28.1395C6.93495 26.9136 5.87154 25.1517 5.12333 22.8541C4.37431 20.5569 4 18.1116 4 15.5178C4 12.7835 4.41535 10.19 5.24564 7.73774C6.07552 5.28504 7.1968 3.38272 8.60743 2.02955C10.0185 0.67638 11.5178 0 13.1049 0C14.2746 0 15.5095 0.436692 16.8102 1.31049C17.5629 1.81777 18.0415 2.07141 18.2458 2.07141C18.5077 2.07141 18.7347 1.90601 18.9271 1.5748C19.1192 1.24359 19.2436 0.718654 19.301 0H19.78Z" fill="white"/>
<path d="M26.2644 10.2512V18.4889H26.4979C27.2428 18.4889 27.7829 18.0858 28.1174 17.2802C28.4523 16.4741 28.6662 15.2855 28.7589 13.7136H29.0881V24.3091H28.7589C28.6896 23.155 28.5439 22.2102 28.3214 21.4739C28.099 20.738 27.8408 20.2426 27.5461 19.989C27.2514 19.7353 26.8242 19.6085 26.2644 19.6085V25.3093C26.2644 26.4236 26.2914 27.1053 26.3464 27.3536C26.4014 27.6024 26.5036 27.8068 26.6538 27.9656C26.8041 28.1244 27.0466 28.204 27.3815 28.204H28.0829C29.18 28.204 30.0591 27.7665 30.7203 26.8911C31.3815 26.0157 31.8568 24.6822 32.1453 22.8915H32.4659L31.9377 29.3233H21.7858V28.7708H22.1757C22.5159 28.7708 22.7905 28.6666 22.9986 28.4573C23.1484 28.3181 23.2637 28.0793 23.345 27.7411C23.4082 27.5022 23.4402 26.8759 23.4402 25.8609V12.5496C23.4402 11.6344 23.4259 11.0721 23.3971 10.8632C23.3388 10.5147 23.2325 10.2463 23.0766 10.0571C22.857 9.77885 22.5566 9.6393 22.1761 9.6393H21.7862V9.08728H31.6171V15.0717H31.288C31.1205 13.6093 30.8853 12.5595 30.582 11.9229C30.2787 11.2863 29.8502 10.8185 29.2953 10.5201C28.9719 10.3407 28.3657 10.2517 27.4763 10.2517L26.2644 10.2512Z" fill="white"/>
<path d="M37.8752 9.0872L43.67 21.638V12.9374C43.67 11.7234 43.569 10.9029 43.3671 10.4748C43.0897 9.89779 42.6247 9.61911 41.9725 9.63881V9.08679H45.8531V9.63881C45.3564 9.7484 45.0232 9.8904 44.8524 10.0644C44.6821 10.2384 44.5491 10.522 44.4539 10.9148C44.3587 11.308 44.3107 11.9819 44.3107 12.937V29.7853H44.0164L36.0735 12.9374V25.8013C36.0735 26.9653 36.2282 27.7513 36.5372 28.1592C36.8459 28.5672 37.1997 28.7708 37.5982 28.7708H37.8752V29.3232H33.7094V28.7708C34.3558 28.7613 34.8065 28.5323 35.0605 28.0845C35.3146 27.6368 35.4418 26.8758 35.4418 25.8013V11.5198L35.1906 10.9825C34.9427 10.4453 34.7227 10.0923 34.5323 9.92283C34.3415 9.75373 34.0673 9.65933 33.7094 9.63922V9.0872H37.8752Z" fill="white"/>
<path d="M57.1755 9.08728V14.5644H56.8635C56.6789 13.3007 56.4736 12.3928 56.2487 11.8408C56.0234 11.2888 55.7144 10.8484 55.3216 10.5201C55.1024 10.3407 54.7183 10.2517 54.1695 10.2517H53.2945V25.8618C53.2945 26.8964 53.3277 27.5433 53.3942 27.8018C53.4603 28.0608 53.5908 28.287 53.7837 28.4807C53.9774 28.6748 54.2413 28.7717 54.5767 28.7717H54.9662V29.3241H48.8168V28.7717H49.2063C49.5469 28.7717 49.8215 28.6674 50.0292 28.4581C50.1794 28.319 50.2976 28.0801 50.3842 27.7419C50.4478 27.503 50.4794 26.8767 50.4794 25.8618V10.2512H49.6306C48.8393 10.2512 48.2651 10.5398 47.9073 11.1168C47.4045 11.9225 47.0872 13.0717 46.9542 14.564H46.6251V9.08728H57.1755Z" fill="white"/>
<path d="M62.2446 20.1006V25.7715C62.2446 26.8661 62.2836 27.5552 62.3616 27.8384C62.4392 28.122 62.5762 28.3485 62.7728 28.5172C62.9694 28.6867 63.3359 28.7708 63.8732 28.7708V29.3233H57.8621V28.7708C58.4047 28.7708 58.7732 28.6838 58.9666 28.5098C59.1599 28.3358 59.2957 28.1092 59.3733 27.831C59.4513 27.5523 59.4903 26.8657 59.4903 25.771V12.6391C59.4903 11.5449 59.4513 10.8558 59.3733 10.5722C59.2957 10.2886 59.1582 10.0625 58.962 9.89294C58.7654 9.72385 58.3989 9.6393 57.8617 9.6393V9.08728H63.3187C64.7392 9.08728 65.7784 9.25679 66.4371 9.59457C67.0954 9.93276 67.6323 10.557 68.048 11.4673C68.4642 12.3777 68.6719 13.4448 68.6719 14.6682C68.6719 16.1605 68.36 17.3943 67.7365 18.3694C67.338 18.9863 66.781 19.4489 66.0649 19.7571L68.889 26.6067C69.258 27.4924 69.521 28.0448 69.677 28.2631C69.9138 28.5718 70.188 28.7409 70.4999 28.7704V29.3229H66.8012L63.0162 20.1002L62.2446 20.1006ZM62.2446 10.1765V19.0413H62.7384C63.5407 19.0413 64.1416 18.9145 64.5401 18.6608C64.9387 18.4072 65.2514 17.9496 65.48 17.288C65.7082 16.6264 65.8219 15.7637 65.8219 14.6986C65.8219 13.1566 65.6126 12.0173 65.1943 11.281C64.7753 10.5447 64.1014 10.1765 63.1718 10.1765H62.2446Z" fill="white"/>
<path d="M76.9994 8.80367C78.8705 8.68424 80.3908 9.62452 81.5596 11.6245C82.7289 13.6241 83.3134 16.1265 83.3134 19.1312C83.3134 21.698 82.8771 23.9566 82.0054 25.9061C80.8504 28.4934 79.219 29.7862 77.1115 29.7862C74.9982 29.7862 73.3639 28.5529 72.2089 26.085C71.2966 24.1351 70.8406 21.8219 70.8406 19.1456C70.8406 16.1412 71.4336 13.6364 72.6206 11.6315C73.8071 9.62699 75.267 8.68424 76.9994 8.80367ZM77.1032 9.75873C76.0296 9.75873 75.2124 10.7039 74.6522 12.5944C74.1958 14.1466 73.9676 16.3752 73.9676 19.2802C73.9676 22.7327 74.3197 25.2843 75.0244 26.9362C75.5149 28.0904 76.2024 28.6674 77.0856 28.6674C77.6803 28.6674 78.1769 28.4191 78.5754 27.9213C79.0836 27.2847 79.4792 26.2672 79.7624 24.8693C80.0456 23.4714 80.1868 21.6483 80.1868 19.3996C80.1868 16.7232 80.0419 14.7212 79.7534 13.393C79.4648 12.0649 79.0963 11.1271 78.6493 10.58C78.2015 10.0325 77.6865 9.75873 77.1032 9.75873Z" fill="white"/>
<path d="M96.417 16.3428V24.2919C96.417 25.8425 96.4724 26.818 96.5824 27.2203C96.6932 27.6221 96.8894 27.9426 97.1717 28.1823C97.4541 28.422 97.9713 28.5414 98.724 28.5414V29.3237H90.2692V28.5414C91.038 28.5414 91.5596 28.4183 91.8338 28.1716C92.1079 27.925 92.3004 27.6044 92.4104 27.2096C92.5212 26.8152 92.5762 25.8429 92.5762 24.2923V5.68774C92.5762 4.13756 92.5208 3.16116 92.4104 2.75977C92.3 2.35796 92.1059 2.03742 91.8276 1.79773C91.5493 1.55845 91.0302 1.4382 90.2692 1.4382V0.655518H97.5214C99.9097 0.655518 101.624 1.38854 102.662 2.85416C103.701 4.3202 104.221 6.15234 104.221 8.35098C104.221 10.2114 103.885 11.8043 103.215 13.1291C102.544 14.4544 101.62 15.3565 100.442 15.8355C99.6482 16.1733 98.307 16.3428 96.417 16.3428ZM96.417 2.3046V14.6937C96.687 14.722 96.8914 14.736 97.0306 14.736C98.0287 14.736 98.7974 14.2254 99.3376 13.2034C99.8773 12.1815 100.147 10.5997 100.147 8.45728C100.147 6.32923 99.8777 4.77167 99.3376 3.78501C98.7974 2.79876 97.9918 2.30543 96.9197 2.30543H96.417V2.3046Z" fill="white"/>
<path d="M111.959 23.5629H107.811L107.317 25.533C107.155 26.1896 107.074 26.7318 107.074 27.1595C107.074 27.7267 107.207 28.1445 107.473 28.4133C107.629 28.5726 108.013 28.692 108.625 28.7712V29.3237H104.719V28.7712C105.14 28.6616 105.487 28.3608 105.758 27.8687C106.029 27.3762 106.364 26.3587 106.763 24.8164L110.963 8.66943H111.128L115.363 25.2641C115.767 26.8365 116.099 27.826 116.359 28.234C116.556 28.5426 116.833 28.7216 117.191 28.7712V29.3237H111.509V28.7712H111.743C112.199 28.7712 112.52 28.6616 112.704 28.4429C112.831 28.2836 112.895 28.055 112.895 27.7562C112.895 27.5773 112.877 27.3934 112.843 27.2042C112.832 27.1143 112.744 26.7417 112.583 26.0846L111.959 23.5629ZM111.665 22.4585L109.915 15.4895L108.114 22.4585H111.665Z" fill="white"/>
<path d="M117.523 9.08728H123.586V9.6393H123.282C122.826 9.6393 122.513 9.72139 122.343 9.88556C122.173 10.0497 122.051 10.2763 121.979 10.5644C121.906 10.8533 121.87 11.5745 121.87 12.7282V22.6375C121.87 24.4482 121.95 25.6471 122.108 26.2344C122.267 26.8217 122.528 27.3085 122.892 27.6968C123.256 28.0846 123.716 28.2787 124.269 28.2787C124.905 28.2787 125.446 28.0321 125.893 27.54C126.341 27.0475 126.676 26.3686 126.898 25.5026C127.12 24.6375 127.232 23.13 127.232 20.9806V12.7286C127.232 11.8232 127.177 11.1763 127.067 10.7885C126.958 10.4006 126.819 10.1318 126.652 9.98283C126.392 9.75422 126.025 9.63971 125.551 9.63971V9.08769H129.613V9.63971H129.371C129.042 9.63971 128.767 9.75422 128.548 9.98283C128.328 10.2118 128.17 10.555 128.072 11.0126C127.996 11.3311 127.959 11.9032 127.959 12.729V20.4146C127.959 22.7922 127.868 24.5086 127.686 25.563C127.505 26.6173 127.061 27.588 126.357 28.4733C125.652 29.3586 124.691 29.801 123.473 29.801C122.456 29.801 121.671 29.5675 121.117 29.0996C120.36 28.463 119.826 27.6475 119.514 26.6522C119.203 25.6574 119.047 24.319 119.047 22.6379V12.7286C119.047 11.5646 119.009 10.8406 118.934 10.557C118.859 10.2734 118.729 10.0473 118.545 9.87817C118.36 9.70907 118.019 9.62945 117.523 9.6393V9.08728Z" fill="white"/>
<path d="M140.834 22.2201L140.391 29.3237H129.963V28.7713H130.353C130.693 28.7713 130.967 28.667 131.176 28.4577C131.326 28.3186 131.441 28.0797 131.522 27.7415C131.585 27.5026 131.617 26.8763 131.617 25.8613V12.5496C131.617 11.5149 131.585 10.8681 131.522 10.6095C131.458 10.351 131.33 10.1244 131.137 9.93029C130.944 9.73616 130.683 9.6393 130.353 9.6393H129.963V9.08728H136.226V9.6393H135.715C135.374 9.6393 135.1 9.74396 134.892 9.95287C134.742 10.0924 134.623 10.3309 134.537 10.6695C134.474 10.9083 134.442 11.5351 134.442 12.55V25.4439C134.442 26.4786 134.476 27.1378 134.546 27.4214C134.615 27.7046 134.75 27.9163 134.953 28.0555C135.097 28.1454 135.447 28.1897 136.001 28.1897H136.98C137.604 28.1897 138.123 28.0009 138.539 27.6225C138.955 27.2445 139.314 26.6477 139.617 25.8318C139.921 25.0163 140.208 23.8125 140.48 22.2205L140.834 22.2201Z" fill="white"/>
<path d="M148.827 23.5629H144.679L144.185 25.533C144.023 26.1896 143.942 26.7318 143.942 27.1595C143.942 27.7267 144.075 28.1445 144.341 28.4133C144.497 28.5726 144.881 28.692 145.493 28.7712V29.3237H141.586V28.7712C142.008 28.6616 142.354 28.3608 142.626 27.8687C142.897 27.3762 143.232 26.3587 143.63 24.8164L147.831 8.66943H147.995L152.231 25.2641C152.635 26.8365 152.967 27.826 153.227 28.234C153.423 28.5426 153.7 28.7216 154.059 28.7712V29.3237H148.377V28.7712H148.61C149.066 28.7712 149.387 28.6616 149.572 28.4429C149.699 28.2836 149.762 28.055 149.762 27.7562C149.762 27.5773 149.745 27.3934 149.711 27.2042C149.699 27.1143 149.612 26.7417 149.45 26.0846L148.827 23.5629ZM148.533 22.4585L146.783 15.4895L144.981 22.4585H148.533Z" fill="white"/>
<path d="M170.091 0L170.225 9.55592H169.723C169.485 7.15986 168.903 5.23251 167.974 3.77386C167.045 2.3148 166.041 1.58547 164.962 1.58547C164.127 1.58547 163.466 1.96963 162.979 2.73753C162.493 3.50585 162.25 4.39031 162.25 5.39093C162.25 6.02504 162.336 6.58896 162.507 7.08229C162.745 7.74472 163.125 8.40016 163.649 9.04863C164.033 9.51365 164.92 10.3382 166.311 11.5223C168.258 13.1714 169.571 14.7289 170.25 16.1945C170.921 17.6606 171.256 19.3376 171.256 21.2263C171.256 23.6224 170.714 25.6836 169.63 27.4098C168.546 29.1365 167.17 30 165.501 30C164.978 30 164.483 29.9081 164.016 29.725C163.55 29.542 162.964 29.1968 162.262 28.6895C161.869 28.4076 161.546 28.2668 161.293 28.2668C161.079 28.2668 160.855 28.408 160.618 28.6895C160.38 28.9711 160.188 29.4008 160.041 29.9791H159.587V19.1545H160.041C160.401 22.1986 161.094 24.5212 162.121 26.1207C163.147 27.7201 164.254 28.5204 165.44 28.5204C166.355 28.5204 167.086 28.0903 167.63 27.2305C168.174 26.3706 168.446 25.37 168.446 24.2286C168.446 23.5522 168.342 22.8968 168.133 22.2623C167.924 21.6282 167.608 21.0252 167.182 20.4548C166.756 19.8839 166.005 19.1406 164.925 18.2241C163.411 16.9415 162.323 15.8494 161.661 14.9473C160.998 14.0456 160.489 13.0376 160.133 11.9241C159.777 10.811 159.599 9.58465 159.599 8.24543C159.599 5.96224 160.085 4.01724 161.059 2.41042C162.032 0.803612 163.26 0.000410395 164.74 0.000410395C165.281 0.000410395 165.804 0.113277 166.311 0.3386C166.696 0.507695 167.164 0.82167 167.716 1.27929C168.268 1.73733 168.655 1.96635 168.876 1.96635C169.088 1.96635 169.256 1.85389 169.379 1.62816C169.501 1.40283 169.616 0.85984 169.723 0.000410395L170.091 0Z" fill="white"/>
<path d="M179.24 8.80367C181.111 8.68424 182.631 9.62452 183.801 11.6245C184.969 13.6241 185.554 16.1265 185.554 19.1312C185.554 21.698 185.118 23.9566 184.246 25.9061C183.091 28.4934 181.459 29.7862 179.352 29.7862C177.239 29.7862 175.604 28.5529 174.449 26.085C173.537 24.1351 173.081 21.8219 173.081 19.1456C173.081 16.1412 173.674 13.6364 174.861 11.6315C176.048 9.62699 177.508 8.68424 179.24 8.80367ZM179.344 9.75873C178.27 9.75873 177.453 10.7039 176.893 12.5944C176.436 14.1466 176.208 16.3752 176.208 19.2802C176.208 22.7327 176.56 25.2843 177.265 26.9362C177.755 28.0904 178.443 28.6674 179.326 28.6674C179.921 28.6674 180.417 28.4191 180.816 27.9213C181.324 27.2847 181.72 26.2672 182.003 24.8693C182.286 23.4714 182.427 21.6483 182.427 19.3996C182.427 16.7232 182.283 14.7212 181.994 13.393C181.706 12.0649 181.337 11.1271 180.89 10.58C180.442 10.0325 179.927 9.75873 179.344 9.75873Z" fill="white"/>
<path d="M186.691 9.08728H192.754V9.6393H192.451C191.995 9.6393 191.681 9.72139 191.511 9.88556C191.341 10.0497 191.219 10.2763 191.147 10.5644C191.075 10.8533 191.039 11.5745 191.039 12.7282V22.6375C191.039 24.4482 191.118 25.6471 191.277 26.2344C191.436 26.8217 191.697 27.3085 192.061 27.6968C192.425 28.0846 192.884 28.2787 193.438 28.2787C194.073 28.2787 194.614 28.0321 195.062 27.54C195.509 27.0475 195.844 26.3686 196.067 25.5026C196.289 24.6375 196.401 23.13 196.401 20.9806V12.7286C196.401 11.8232 196.345 11.1763 196.236 10.7885C196.126 10.4006 195.988 10.1318 195.82 9.98283C195.56 9.75422 195.194 9.63971 194.719 9.63971V9.08769H198.782V9.63971H198.54C198.21 9.63971 197.936 9.75422 197.716 9.98283C197.497 10.2118 197.338 10.555 197.24 11.0126C197.165 11.3311 197.127 11.9032 197.127 12.729V20.4146C197.127 22.7922 197.037 24.5086 196.855 25.563C196.673 26.6173 196.23 27.588 195.525 28.4733C194.82 29.3586 193.859 29.801 192.641 29.801C191.624 29.801 190.84 29.5675 190.285 29.0996C189.528 28.463 188.994 27.6475 188.683 26.6522C188.371 25.6574 188.215 24.319 188.215 22.6379V12.7286C188.215 11.5646 188.178 10.8406 188.103 10.557C188.028 10.2734 187.897 10.0473 187.713 9.87817C187.528 9.70907 187.187 9.62945 186.691 9.6393V9.08728Z" fill="white"/>
<path d="M209.629 9.08728L202.726 28.1893H204.961C206.017 28.1893 206.756 28.0752 207.178 27.8462C207.865 27.4879 208.456 26.8287 208.953 25.8687C209.45 24.9087 209.794 23.6229 209.984 22.0111H210.322L209.846 29.3237H199.088L206 10.1917H204.259C203.584 10.1917 203.139 10.2266 202.926 10.296C202.521 10.4253 202.142 10.6814 201.787 11.0647C201.432 11.448 201.136 11.9578 200.903 12.5944C200.669 13.2313 200.486 14.037 200.353 15.0122H200.033L200.353 9.08728H209.629Z" fill="white"/>
<path d="M217.73 23.5629H213.581L213.088 25.533C212.926 26.1896 212.845 26.7318 212.845 27.1595C212.845 27.7267 212.978 28.1445 213.243 28.4133C213.4 28.5726 213.783 28.692 214.395 28.7712V29.3237H210.489V28.7712C210.91 28.6616 211.257 28.3608 211.528 27.8687C211.799 27.3762 212.135 26.3587 212.533 24.8164L216.734 8.66943H216.898L221.134 25.2641C221.537 26.8365 221.869 27.826 222.129 28.234C222.326 28.5426 222.603 28.7216 222.961 28.7712V29.3237H217.279V28.7712H217.512C217.968 28.7712 218.289 28.6616 218.474 28.4429C218.601 28.2836 218.665 28.055 218.665 27.7562C218.665 27.5773 218.648 27.3934 218.613 27.2042C218.601 27.1143 218.515 26.7417 218.353 26.0846L217.73 23.5629ZM217.435 22.4585L215.685 15.4895L213.884 22.4585H217.435Z" fill="white"/>
</g>
<defs>
<filter id="filter0_d_23_281" x="0" y="0" width="226.961" height="38" filterUnits="userSpaceOnUse" color-interpolation-filters="sRGB">
<feFlood flood-opacity="0" result="BackgroundImageFix"/>
<feColorMatrix in="SourceAlpha" type="matrix" values="0 0 0 0 0 0 0 0 0 0 0 0 0 0 0 0 0 0 127 0" result="hardAlpha"/>
<feOffset dy="4"/>
<feGaussianBlur stdDeviation="2"/>
<feComposite in2="hardAlpha" operator="out"/>
<feColorMatrix type="matrix" values="0 0 0 0 0 0 0 0 0 0 0 0 0 0 0 0 0 0 0.25 0"/>
<feBlend mode="normal" in2="BackgroundImageFix" result="effect1_dropShadow_23_281"/>
<feBlend mode="normal" in="SourceGraphic" in2="effect1_dropShadow_23_281" result="shape"/>
</filter>
</defs>
</svg>
