<svg width="170" height="70" viewBox="0 0 170 70" fill="none" xmlns="http://www.w3.org/2000/svg">
<g filter="url(#filter0_d_23_142)">
<path d="M10 18.6777H50.9057V60H10V18.6777Z" fill="#A6A6A6"/>
<path d="M42.3155 10H79.8124V47.8788H42.3155V10Z" fill="#FF0F0F"/>
<path d="M74.7673 20.3306H108.855V54.7658H74.7673V20.3306Z" fill="#2174BF"/>
<path d="M135.613 31.2036L129.67 29.3591C129.347 29.2586 128.997 29.2586 128.673 29.3591L122.73 31.2036C122.229 31.3592 122.229 32.0292 122.73 32.1848L123.766 32.5063C123.539 32.7902 123.399 33.1365 123.386 33.5157C123.18 33.6345 123.036 33.8489 123.036 34.1048C123.036 34.3368 123.157 34.532 123.331 34.6568L122.787 37.1293C122.74 37.3443 122.902 37.5483 123.12 37.5483H124.315C124.533 37.5483 124.695 37.3443 124.648 37.1293L124.104 34.6568C124.278 34.532 124.399 34.3368 124.399 34.1048C124.399 33.8557 124.262 33.6474 124.066 33.5265C124.082 33.2032 124.246 32.9174 124.507 32.7362L128.673 34.0294C128.866 34.0893 129.237 34.1639 129.67 34.0294L135.613 32.185C136.115 32.0292 136.115 31.3594 135.613 31.2036ZM129.87 34.6878C129.263 34.8763 128.745 34.7722 128.473 34.6878L125.383 33.729L125.081 36.1709C125.081 36.9317 126.913 37.5483 129.172 37.5483C131.431 37.5483 133.262 36.9317 133.262 36.1709L132.96 33.7288L129.87 34.6878Z" fill="black"/>
<path d="M121.681 50.3106C121.681 50.082 121.648 49.8768 121.581 49.6952C121.514 49.5069 121.391 49.3321 121.212 49.1707C121.032 49.0092 120.772 48.8478 120.433 48.6864C120.1 48.5183 119.66 48.3434 119.114 48.1618C118.475 47.9466 117.859 47.7045 117.267 47.4354C116.674 47.1597 116.145 46.8402 115.679 46.477C115.213 46.1071 114.843 45.6767 114.57 45.1857C114.297 44.688 114.161 44.1096 114.161 43.4505C114.161 42.8183 114.301 42.25 114.58 41.7455C114.86 41.2344 115.249 40.8006 115.749 40.4441C116.255 40.0809 116.847 39.8052 117.526 39.6169C118.206 39.4218 118.948 39.3243 119.753 39.3243C120.819 39.3243 121.757 39.5126 122.57 39.8893C123.389 40.2592 124.028 40.7871 124.487 41.4732C124.953 42.1524 125.186 42.9562 125.186 43.8843H121.701C121.701 43.5144 121.624 43.1882 121.471 42.9057C121.325 42.6232 121.102 42.4013 120.802 42.2399C120.502 42.0785 120.126 41.9978 119.674 41.9978C119.234 41.9978 118.865 42.065 118.565 42.1995C118.265 42.334 118.039 42.5156 117.886 42.7443C117.733 42.9662 117.656 43.2117 117.656 43.4808C117.656 43.7027 117.716 43.9045 117.836 44.0861C117.962 44.2609 118.139 44.4257 118.365 44.5804C118.598 44.7351 118.878 44.883 119.204 45.0243C119.537 45.1655 119.91 45.3034 120.323 45.4379C121.095 45.6868 121.781 45.9659 122.38 46.2753C122.986 46.5779 123.495 46.9243 123.908 47.3144C124.327 47.6977 124.644 48.1349 124.857 48.6259C125.076 49.1168 125.186 49.6717 125.186 50.2905C125.186 50.9496 125.06 51.5347 124.807 52.0459C124.554 52.557 124.191 52.9908 123.718 53.3473C123.245 53.697 122.68 53.9627 122.02 54.1443C121.361 54.3258 120.626 54.4166 119.813 54.4166C119.068 54.4166 118.332 54.3225 117.606 54.1342C116.887 53.9391 116.235 53.6432 115.649 53.2464C115.063 52.8428 114.594 52.3283 114.241 51.7028C113.895 51.0706 113.721 50.3207 113.721 49.4531H117.237C117.237 49.8836 117.293 50.2467 117.407 50.5427C117.52 50.8386 117.686 51.0774 117.906 51.259C118.126 51.4338 118.395 51.5616 118.715 51.6423C119.034 51.7163 119.401 51.7533 119.813 51.7533C120.259 51.7533 120.619 51.6894 120.892 51.5616C121.165 51.4271 121.365 51.2522 121.491 51.037C121.618 50.8151 121.681 50.5729 121.681 50.3106Z" fill="black"/>
<path d="M130.719 39.5261V54.2149H127.224V39.5261H130.719Z" fill="black"/>
<path d="M145.08 46.3661V52.3989C144.833 52.6747 144.454 52.9706 143.941 53.2867C143.435 53.5961 142.796 53.8618 142.024 54.0837C141.252 54.3057 140.343 54.4166 139.298 54.4166C138.332 54.4166 137.457 54.262 136.671 53.9526C135.885 53.6365 135.21 53.1758 134.644 52.5705C134.084 51.9584 133.652 51.2119 133.345 50.3308C133.046 49.443 132.896 48.4275 132.896 47.2841V46.4669C132.896 45.3236 133.049 44.308 133.355 43.4202C133.662 42.5324 134.091 41.7859 134.644 41.1806C135.203 40.5686 135.859 40.1045 136.611 39.7884C137.37 39.4723 138.202 39.3142 139.108 39.3142C140.446 39.3142 141.535 39.5294 142.373 39.9599C143.212 40.3836 143.848 40.9721 144.281 41.7254C144.714 42.4719 144.977 43.3362 145.07 44.3181H141.704C141.638 43.8339 141.511 43.4236 141.325 43.0873C141.145 42.7443 140.885 42.4854 140.546 42.3105C140.206 42.1289 139.767 42.0381 139.228 42.0381C138.808 42.0381 138.425 42.1289 138.079 42.3105C137.74 42.4921 137.45 42.7678 137.21 43.1378C136.971 43.5009 136.784 43.9583 136.651 44.5098C136.525 45.0613 136.461 45.7069 136.461 46.4468V47.2841C136.461 48.0172 136.521 48.6595 136.641 49.211C136.768 49.7625 136.954 50.2232 137.2 50.5931C137.453 50.9563 137.773 51.2321 138.159 51.4204C138.552 51.602 139.015 51.6928 139.547 51.6928C139.92 51.6928 140.24 51.6625 140.506 51.602C140.772 51.5347 140.992 51.454 141.165 51.3598C141.345 51.259 141.481 51.1648 141.574 51.0774V48.7974H139.138V46.3661H145.08Z" fill="black"/>
<path d="M152.875 39.5261L152.98 43.6248L151.418 48.7368L150.581 51.4759L149.744 54.2149H145.979L151.322 39.5261H153.708H152.875ZM156.225 54.2149L155.384 51.4708L154.546 48.7368L152.98 43.6248L152.875 39.5261H152.21H154.627L160 54.2149H156.225ZM154.546 48.7368L155.384 51.4708L150.581 51.4759L151.418 48.7368H154.546Z" fill="black"/>
<path d="M102.302 36.5279V37.52C102.302 39.3919 102.042 41.0733 101.52 42.5642C101.01 44.0438 100.283 45.3105 99.3396 46.3642C98.3964 47.4066 97.2812 48.2081 95.9941 48.7686C94.7069 49.3178 93.2866 49.5925 91.7331 49.5925C90.1685 49.5925 88.737 49.3178 87.4388 48.7686C86.1516 48.2081 85.0308 47.4066 84.0766 46.3642C83.1334 45.3105 82.401 44.0438 81.8795 42.5642C81.369 41.0733 81.1138 39.3919 81.1138 37.52V36.5279C81.1138 34.656 81.369 32.9745 81.8795 31.4837C82.401 29.9929 83.1278 28.7262 84.0599 27.6837C85.0031 26.63 86.1183 25.8286 87.4055 25.2793C88.7038 24.7188 90.1352 24.4386 91.6998 24.4386C93.2533 24.4386 94.6736 24.7188 95.9608 25.2793C97.2591 25.8286 98.3798 26.63 99.323 27.6837C100.266 28.7262 100.999 29.9929 101.52 31.4837C102.042 32.9745 102.302 34.656 102.302 36.5279ZM96.3769 37.52V36.4943C96.3769 35.2837 96.2715 34.2188 96.0606 33.2996C95.8609 32.3692 95.5613 31.5902 95.1618 30.9625C94.7624 30.3347 94.2686 29.8639 93.6805 29.5501C93.1035 29.225 92.4432 29.0625 91.6998 29.0625C90.923 29.0625 90.2461 29.225 89.6691 29.5501C89.0921 29.8639 88.6094 30.3347 88.2211 30.9625C87.8327 31.5902 87.5386 32.3692 87.3389 33.2996C87.1503 34.2188 87.0559 35.2837 87.0559 36.4943V37.52C87.0559 38.7194 87.1503 39.7843 87.3389 40.7146C87.5386 41.6338 87.8327 42.4129 88.2211 43.0518C88.6205 43.6907 89.1088 44.1727 89.6858 44.4978C90.2739 44.8229 90.9563 44.9854 91.7331 44.9854C92.4765 44.9854 93.1367 44.8229 93.7138 44.4978C94.2908 44.1727 94.7735 43.6907 95.1618 43.0518C95.5613 42.4129 95.8609 41.6338 96.0606 40.7146C96.2715 39.7843 96.3769 38.7194 96.3769 37.52Z" fill="black"/>
<path d="M52.3442 16.2349H61.8815C63.7457 16.2349 65.3658 16.5152 66.7417 17.0756C68.1177 17.6361 69.1774 18.4656 69.9208 19.5641C70.6754 20.6626 71.0527 22.019 71.0527 23.6331C71.0527 25.0343 70.8363 26.2057 70.4035 27.1473C69.9708 28.0889 69.366 28.8679 68.5893 29.4844C68.0596 29.9032 67.4689 30.2709 66.8172 30.5877L65.4901 31.2857L63.9954 32.0738H61.3322H58.1864L58.1531 27.5172H61.8815C62.625 27.5172 63.2408 27.3827 63.729 27.1137C64.2173 26.8446 64.5835 26.4635 64.8276 25.9703C65.0828 25.4659 65.2104 24.8662 65.2104 24.1712C65.2104 23.465 65.0828 22.8597 64.8276 22.3553C64.5724 21.8508 64.1951 21.4641 63.6958 21.1951C63.2075 20.9261 62.6028 20.7916 61.8815 20.7916H58.1864V40.7163H52.3442V16.2349ZM65.6099 40.7163L61.3322 32.0738H63.9954L66.8172 30.5877L71.8682 40.464V40.7163H65.6099Z" fill="black"/>
<path d="M31.199 43.2916H27.3708V38.735H31.199C32.0202 38.735 32.686 38.5949 33.1964 38.3147C33.7068 38.0344 34.0786 37.6477 34.3116 37.1545C34.5557 36.6501 34.6778 36.084 34.6778 35.4563C34.6778 34.7837 34.5557 34.1616 34.3116 33.5899C34.0786 33.0182 33.7068 32.5586 33.1964 32.2111C32.686 31.8524 32.0202 31.6731 31.199 31.6731H27.3708V51.5978H21.5286V27.1165H31.199C33.1409 27.1165 34.8109 27.4752 36.2091 28.1926C37.6183 28.91 38.7002 29.8964 39.4548 31.1519C40.2093 32.3961 40.5866 33.8197 40.5866 35.4226C40.5866 37.0032 40.2093 38.3819 39.4548 39.5589C38.7002 40.7359 37.6183 41.6551 36.2091 42.3164C34.8109 42.9666 33.1409 43.2916 31.199 43.2916Z" fill="black"/>
</g>
<defs>
<filter id="filter0_d_23_142" x="0" y="0" width="170" height="70" filterUnits="userSpaceOnUse" color-interpolation-filters="sRGB">
<feFlood flood-opacity="0" result="BackgroundImageFix"/>
<feColorMatrix in="SourceAlpha" type="matrix" values="0 0 0 0 0 0 0 0 0 0 0 0 0 0 0 0 0 0 127 0" result="hardAlpha"/>
<feOffset/>
<feGaussianBlur stdDeviation="5"/>
<feComposite in2="hardAlpha" operator="out"/>
<feColorMatrix type="matrix" values="0 0 0 0 1 0 0 0 0 1 0 0 0 0 1 0 0 0 1 0"/>
<feBlend mode="normal" in2="BackgroundImageFix" result="effect1_dropShadow_23_142"/>
<feBlend mode="normal" in="SourceGraphic" in2="effect1_dropShadow_23_142" result="shape"/>
</filter>
</defs>
</svg>
