<svg width="29" height="34" viewBox="0 0 29 34" fill="none" xmlns="http://www.w3.org/2000/svg">
<path d="M6.6875 4.36841C5.23125 4.36841 4.50313 4.36841 3.92969 4.60841C3.55028 4.76711 3.20555 4.99982 2.91519 5.29323C2.62484 5.58665 2.39455 5.93501 2.2375 6.31841C2 6.89788 2 7.63367 2 9.10525V25.6842C2 28.6621 2 30.1495 2.91562 31.0747C3.83125 32 5.30312 32 8.25 32H20.75C23.6969 32 25.1687 32 26.0844 31.0747C27 30.1495 27 28.6621 27 25.6842V9.10525C27 7.63367 27 6.89788 26.7625 6.31841C26.6054 5.93501 26.3752 5.58665 26.0848 5.29323C25.7945 4.99982 25.4497 4.76711 25.0703 4.60841C24.4969 4.36841 23.7687 4.36841 22.3125 4.36841" stroke="black" stroke-width="3"/>
<path d="M6.6875 4.76316C6.6875 3.23789 7.9125 2 9.42187 2H19.5781C20.3033 2 20.9988 2.29112 21.5116 2.80931C22.0244 3.3275 22.3125 4.03032 22.3125 4.76316C22.3125 5.49599 22.0244 6.19881 21.5116 6.71701C20.9988 7.2352 20.3033 7.52632 19.5781 7.52632H9.42187C8.69667 7.52632 8.00117 7.2352 7.48838 6.71701C6.97559 6.19881 6.6875 5.49599 6.6875 4.76316Z" stroke="black" stroke-width="3"/>
<path d="M8.25 13.0526H20.75M8.25 19.3684H20.75M8.25 25.6842H14.5" stroke="black" stroke-width="3" stroke-linecap="round" stroke-linejoin="round"/>
</svg>
