<svg width="30" height="30" viewBox="0 0 30 30" fill="none" xmlns="http://www.w3.org/2000/svg">
<path d="M25.5083 20.4333C24.1692 18.9825 22.5443 17.8247 20.7357 17.0328C18.9272 16.2409 16.9743 15.832 15 15.832C13.0256 15.832 11.0727 16.2409 9.26417 17.0328C7.45563 17.8247 5.83067 18.9825 4.49163 20.4333C4.28489 20.6619 4.16924 20.9585 4.16663 21.2667V26.2667C4.17101 26.5953 4.30464 26.909 4.53858 27.1398C4.77253 27.3706 5.08797 27.5 5.41663 27.5H24.5833C24.9148 27.5 25.2328 27.3683 25.4672 27.1339C25.7016 26.8995 25.8333 26.5815 25.8333 26.25V21.25C25.8266 20.9476 25.7113 20.6576 25.5083 20.4333Z" fill="black"/>
<path d="M15 14.1667C18.2216 14.1667 20.8333 11.555 20.8333 8.33333C20.8333 5.11167 18.2216 2.5 15 2.5C11.7783 2.5 9.16663 5.11167 9.16663 8.33333C9.16663 11.555 11.7783 14.1667 15 14.1667Z" fill="black"/>
</svg>
