<svg width="159" height="52" viewBox="0 0 159 52" fill="none" xmlns="http://www.w3.org/2000/svg">
<path d="M0 9.02479H43.36V52H0V9.02479Z" fill="#A6A6A6"/>
<path d="M34.2544 0H74.0011V39.3939H34.2544V0Z" fill="#FF0F0F"/>
<path d="M68.6534 10.7438H104.787V46.5565H68.6534V10.7438Z" fill="#2174BF"/>
<path d="M133.15 22.0517L126.851 20.1335C126.507 20.029 126.137 20.029 125.794 20.1335L119.494 22.0517C118.963 22.2135 118.963 22.9103 119.494 23.0722L120.592 23.4066C120.351 23.7018 120.203 24.0619 120.189 24.4563C119.971 24.5799 119.818 24.8028 119.818 25.0689C119.818 25.3102 119.946 25.5133 120.131 25.6431L119.555 28.2144C119.504 28.438 119.676 28.6502 119.907 28.6502H121.174C121.405 28.6502 121.577 28.438 121.527 28.2144L120.95 25.6431C121.135 25.5133 121.263 25.3102 121.263 25.0689C121.263 24.81 121.117 24.5933 120.91 24.4675C120.927 24.1313 121.1 23.8341 121.377 23.6456L125.794 24.9906C125.998 25.0528 126.391 25.1305 126.85 24.9906L133.15 23.0724C133.682 22.9103 133.682 22.2138 133.15 22.0517ZM127.063 25.6753C126.418 25.8714 125.869 25.763 125.581 25.6753L122.306 24.6781L121.986 27.2177C121.986 28.009 123.927 28.6502 126.322 28.6502C128.717 28.6502 130.658 28.009 130.658 27.2177L130.338 24.6779L127.063 25.6753Z" fill="black"/>
<path d="M118.382 41.9231C118.382 41.6853 118.346 41.4719 118.276 41.2831C118.205 41.0872 118.075 40.9053 117.884 40.7375C117.694 40.5696 117.418 40.4017 117.059 40.2339C116.706 40.059 116.24 39.8771 115.661 39.6883C114.984 39.4644 114.331 39.2126 113.703 38.9329C113.075 38.6461 112.514 38.3138 112.02 37.9361C111.526 37.5514 111.134 37.1037 110.845 36.5931C110.555 36.0755 110.411 35.474 110.411 34.7885C110.411 34.131 110.559 33.54 110.855 33.0154C111.152 32.4838 111.564 32.0326 112.094 31.6619C112.63 31.2842 113.258 30.9974 113.978 30.8016C114.698 30.5987 115.485 30.4973 116.339 30.4973C117.468 30.4973 118.463 30.6931 119.324 31.0848C120.192 31.4695 120.869 32.0186 121.356 32.7321C121.85 33.4385 122.097 34.2744 122.097 35.2397H118.403C118.403 34.855 118.322 34.5157 118.159 34.2219C118.004 33.9282 117.768 33.6973 117.45 33.5295C117.133 33.3616 116.734 33.2777 116.254 33.2777C115.788 33.2777 115.397 33.3476 115.079 33.4875C114.761 33.6274 114.521 33.8163 114.359 34.0541C114.197 34.2849 114.116 34.5402 114.116 34.82C114.116 35.0508 114.179 35.2607 114.306 35.4495C114.44 35.6314 114.627 35.8027 114.867 35.9636C115.114 36.1245 115.411 36.2784 115.756 36.4253C116.109 36.5722 116.505 36.7155 116.942 36.8554C117.761 37.1142 118.488 37.4045 119.123 37.7263C119.765 38.041 120.305 38.4013 120.742 38.8069C121.187 39.2056 121.522 39.6603 121.748 40.1709C121.981 40.6815 122.097 41.2586 122.097 41.9021C122.097 42.5876 121.963 43.1961 121.695 43.7277C121.427 44.2593 121.042 44.7104 120.541 45.0812C120.04 45.4449 119.44 45.7212 118.742 45.91C118.043 46.0989 117.263 46.1933 116.402 46.1933C115.612 46.1933 114.832 46.0954 114.063 45.8995C113.3 45.6967 112.609 45.3889 111.988 44.9762C111.367 44.5566 110.869 44.0215 110.495 43.371C110.128 42.7135 109.945 41.9336 109.945 41.0312H113.671C113.671 41.4789 113.731 41.8566 113.851 42.1644C113.971 42.4721 114.147 42.7205 114.38 42.9093C114.613 43.0912 114.899 43.2241 115.238 43.308C115.576 43.385 115.965 43.4234 116.402 43.4234C116.875 43.4234 117.256 43.357 117.545 43.2241C117.835 43.0842 118.047 42.9023 118.181 42.6785C118.315 42.4477 118.382 42.1959 118.382 41.9231Z" fill="black"/>
<path d="M127.962 30.7071V45.9835H124.257V30.7071H127.962Z" fill="black"/>
<path d="M143.185 37.8207V44.0949C142.923 44.3817 142.521 44.6895 141.978 45.0182C141.441 45.34 140.764 45.6163 139.945 45.8471C139.127 46.0779 138.163 46.1933 137.055 46.1933C136.032 46.1933 135.104 46.0324 134.271 45.7107C133.438 45.3819 132.722 44.9028 132.122 44.2733C131.529 43.6368 131.071 42.8604 130.746 41.944C130.429 41.0208 130.27 39.9646 130.27 38.7755V37.9256C130.27 36.7365 130.432 35.6803 130.757 34.757C131.081 33.8337 131.537 33.0573 132.122 32.4278C132.715 31.7913 133.41 31.3087 134.208 30.9799C135.012 30.6512 135.894 30.4868 136.854 30.4868C138.273 30.4868 139.427 30.7106 140.316 31.1583C141.205 31.5989 141.879 32.211 142.338 32.9944C142.796 33.7708 143.075 34.6696 143.174 35.6908H139.607C139.536 35.1872 139.402 34.7605 139.204 34.4108C139.014 34.0541 138.739 33.7848 138.379 33.6029C138.019 33.4141 137.553 33.3196 136.981 33.3196C136.537 33.3196 136.131 33.4141 135.764 33.6029C135.404 33.7918 135.097 34.0786 134.843 34.4633C134.589 34.841 134.391 35.3166 134.25 35.8902C134.116 36.4637 134.049 37.1352 134.049 37.9046V38.7755C134.049 39.5379 134.112 40.2059 134.239 40.7794C134.374 41.353 134.571 41.8321 134.832 42.2168C135.1 42.5946 135.439 42.8813 135.849 43.0772C136.265 43.266 136.755 43.3605 137.32 43.3605C137.715 43.3605 138.054 43.329 138.336 43.266C138.619 43.1961 138.851 43.1122 139.035 43.0142C139.225 42.9093 139.37 42.8114 139.469 42.7205V40.3493H136.886V37.8207H143.185Z" fill="black"/>
<path d="M151.448 30.7071L151.559 34.9698L149.903 40.2863L149.015 43.1349L148.128 45.9835H144.137L149.801 30.7071H152.331H151.448ZM154.999 45.9835L154.107 43.1297L153.219 40.2863L151.559 34.9698L151.448 30.7071H150.743H153.305L159 45.9835H154.999ZM153.219 40.2863L154.107 43.1297L149.015 43.1349L149.903 40.2863H153.219Z" fill="black"/>
<path d="M97.8405 27.589V28.6208C97.8405 30.5676 97.5641 32.3163 97.0113 33.8668C96.4702 35.4056 95.6998 36.7229 94.7 37.8187C93.7002 38.9029 92.5181 39.7364 91.1537 40.3193C89.7893 40.8906 88.2838 41.1762 86.637 41.1762C84.9786 41.1762 83.4613 40.8906 82.0851 40.3193C80.7207 39.7364 79.5327 38.9029 78.5212 37.8187C77.5214 36.7229 76.7451 35.4056 76.1922 33.8668C75.6512 32.3163 75.3807 30.5676 75.3807 28.6208V27.589C75.3807 25.6422 75.6512 23.8935 76.1922 22.343C76.7451 20.7926 77.5155 19.4752 78.5035 18.3911C79.5033 17.2952 80.6854 16.4617 82.0498 15.8905C83.426 15.3076 84.9433 15.0161 86.6018 15.0161C88.2485 15.0161 89.754 15.3076 91.1184 15.8905C92.4946 16.4617 93.6826 17.2952 94.6824 18.3911C95.6822 19.4752 96.4584 20.7926 97.0113 22.343C97.5641 23.8935 97.8405 25.6422 97.8405 27.589ZM91.5595 28.6208V27.5541C91.5595 26.295 91.4478 25.1875 91.2243 24.2316C91.0126 23.264 90.695 22.4538 90.2716 21.801C89.8481 21.1481 89.3247 20.6585 88.7013 20.3321C88.0897 19.994 87.3898 19.825 86.6018 19.825C85.7784 19.825 85.0609 19.994 84.4493 20.3321C83.8376 20.6585 83.326 21.1481 82.9143 21.801C82.5026 22.4538 82.1909 23.264 81.9792 24.2316C81.7793 25.1875 81.6793 26.295 81.6793 27.5541V28.6208C81.6793 29.8681 81.7793 30.9756 81.9792 31.9432C82.1909 32.8992 82.5026 33.7094 82.9143 34.3739C83.3378 35.0384 83.8553 35.5396 84.4669 35.8777C85.0903 36.2158 85.8137 36.3848 86.637 36.3848C87.4251 36.3848 88.125 36.2158 88.7366 35.8777C89.3482 35.5396 89.8599 35.0384 90.2716 34.3739C90.695 33.7094 91.0126 32.8992 91.2243 31.9432C91.4478 30.9756 91.5595 29.8681 91.5595 28.6208Z" fill="black"/>
<path d="M44.8848 6.48433H54.9944C56.9704 6.48433 58.6877 6.77578 60.1462 7.35866C61.6047 7.94155 62.728 8.80423 63.5161 9.94669C64.3159 11.0892 64.7158 12.4997 64.7158 14.1785C64.7158 15.6357 64.4865 16.8539 64.0277 17.8332C63.569 18.8124 62.928 19.6226 62.1046 20.2638C61.5432 20.6993 60.9171 21.0818 60.2262 21.4112L58.8195 22.1371L57.2351 22.9568H54.4122H51.0776L51.0423 18.2179H54.9944C55.7825 18.2179 56.4353 18.078 56.9528 17.7982C57.4703 17.5184 57.8585 17.122 58.1172 16.6091C58.3878 16.0845 58.523 15.4608 58.523 14.738C58.523 14.0036 58.3878 13.3741 58.1172 12.8495C57.8467 12.3249 57.4468 11.9227 56.9175 11.6429C56.4 11.3631 55.7589 11.2232 54.9944 11.2232H51.0776V31.9449H44.8848V6.48433ZM58.9465 31.9449L54.4122 22.9568H57.2351L60.2262 21.4112L65.5803 31.6826V31.9449H58.9465Z" fill="black"/>
<path d="M22.471 34.6233H18.413V29.8844H22.471C23.3414 29.8844 24.0471 29.7387 24.5882 29.4473C25.1292 29.1558 25.5233 28.7536 25.7703 28.2407C26.029 27.7161 26.1584 27.1274 26.1584 26.4745C26.1584 25.7751 26.029 25.128 25.7703 24.5335C25.5233 23.939 25.1292 23.461 24.5882 23.0996C24.0471 22.7265 23.3414 22.54 22.471 22.54H18.413V43.2617H12.2203V17.8011H22.471C24.5294 17.8011 26.2996 18.1742 27.7816 18.9203C29.2754 19.6664 30.4222 20.6923 31.222 21.9979C32.0219 23.2919 32.4218 24.7725 32.4218 26.4395C32.4218 28.0833 32.0219 29.5172 31.222 30.7413C30.4222 31.9653 29.2754 32.9213 27.7816 33.6091C26.2996 34.2852 24.5294 34.6233 22.471 34.6233Z" fill="black"/>
</svg>
